# xmcd
#
# Track frame offsets:
#	150
#	21333
#	38047
#	54521
#	73701
#	97193
#	117944
#	139862
#	159150
#	177752
#	195922
#	218777
#	238601
#	259951
#	283791
#	309227
#	330574
#
# Disc length: 4684 seconds
#
# Revision: 0
# Processed by: cddbd v1.5.1PL2 Copyright (c) Steve Scherf et al.
# Submitted via: dBpowerAMP V4.0
#
DISCID=f0124a11
DTITLE=Varios - Varios
DYEAR=1900
DGENRE=
TTITLE0=Español 1
TTITLE1=Español 2
TTITLE2=Español 3
TTITLE3=Español 4
TTITLE4=Español 5
TTITLE5=Español 6
TTITLE6=Español 7
TTITLE7=Español 8
TTITLE8=Español 9
TTITLE9=Español 10
TTITLE10=Español 11
TTITLE11=Español 12
TTITLE12=Español 13
TTITLE13=Español 14
TTITLE14=Español 15
TTITLE15=Español 16
TTITLE16=Español 17
EXTD=varios
EXTT0=
EXTT1=
EXTT2=
EXTT3=
EXTT4=
EXTT5=
EXTT6=
EXTT7=
EXTT8=
EXTT9=
EXTT10=
EXTT11=
EXTT12=
EXTT13=
EXTT14=
EXTT15=
EXTT16=
PLAYORDER=
